<?xml version="1.0" encoding="UTF-8" standalone="no"?>
<!-- Created with Inkscape (http://www.inkscape.org/) -->

<svg
   width="512"
   height="512"
   viewBox="0 0 135.46666 135.46667"
   version="1.1"
   id="svg5"
   xml:space="preserve"
   inkscape:version="1.4.2 (ebf0e940d0, 2025-05-08)"
   sodipodi:docname="icon.svg"
   inkscape:export-filename="icon.png"
   inkscape:export-xdpi="96"
   inkscape:export-ydpi="96"
   xmlns:inkscape="http://www.inkscape.org/namespaces/inkscape"
   xmlns:sodipodi="http://sodipodi.sourceforge.net/DTD/sodipodi-0.dtd"
   xmlns:xlink="http://www.w3.org/1999/xlink"
   xmlns="http://www.w3.org/2000/svg"
   xmlns:svg="http://www.w3.org/2000/svg"><sodipodi:namedview
     id="namedview7"
     pagecolor="#ffffff"
     bordercolor="#000000"
     borderopacity="0.25"
     inkscape:showpageshadow="2"
     inkscape:pageopacity="0.0"
     inkscape:pagecheckerboard="0"
     inkscape:deskcolor="#d1d1d1"
     inkscape:document-units="mm"
     showgrid="false"
     inkscape:zoom="0.61502211"
     inkscape:cx="142.27131"
     inkscape:cy="343.89008"
     inkscape:window-width="1536"
     inkscape:window-height="779"
     inkscape:window-x="0"
     inkscape:window-y="0"
     inkscape:window-maximized="1"
     inkscape:current-layer="layer1" /><defs
     id="defs2"><linearGradient
       inkscape:collect="always"
       id="linearGradient3657"><stop
         style="stop-color:#58b0dc;stop-opacity:1;"
         offset="0"
         id="stop3653" /><stop
         style="stop-color:#1c4392;stop-opacity:1;"
         offset="1"
         id="stop3655" /></linearGradient><linearGradient
       inkscape:collect="always"
       xlink:href="#linearGradient3657"
       id="linearGradient947"
       x1="76.787094"
       y1="113.40435"
       x2="110.68458"
       y2="152.48038"
       gradientUnits="userSpaceOnUse"
       gradientTransform="rotate(180,98.725595,124.69947)" /><linearGradient
       inkscape:collect="always"
       xlink:href="#linearGradient3657"
       id="linearGradient3659"
       x1="75.446587"
       y1="114.65311"
       x2="112.02509"
       y2="151.23161"
       gradientUnits="userSpaceOnUse"
       gradientTransform="rotate(180,98.725595,124.69947)" /><linearGradient
       inkscape:collect="always"
       xlink:href="#linearGradient3657"
       id="linearGradient2"
       x1="160.70181"
       y1="149.49628"
       x2="79.480881"
       y2="68.275345"
       gradientUnits="userSpaceOnUse"
       gradientTransform="matrix(1.1765896,0,0,1.2368086,-43.170524,-12.257148)" /></defs><g
     inkscape:label="Updatium Logo"
     inkscape:groupmode="layer"
     id="layer1"
     transform="translate(-30.394373,-54.680428)"><path
       style="fill:url(#linearGradient3659);fill-opacity:1;stroke:url(#linearGradient947);stroke-width:0.139;stroke-dasharray:none"
       d="m 87.530272,96.193227 c 0.73146,0.38777 5.00657,2.756783 25.032408,13.871483 5.57273,3.09297 10.93823,6.06723 11.92332,6.60948 2.23728,1.23152 2.58105,1.53456 2.58105,2.27528 0,0.3879 -0.89293,2.87231 -2.98561,8.30689 -1.64209,4.2644 -3.09426,8.0014 -3.22705,8.30444 -0.3024,0.69008 -0.78972,1.27621 -1.26573,1.52236 -0.44558,0.23042 -11.58052,4.29685 -12.14814,4.43644 -0.61355,0.1509 -1.1428,-0.13977 -1.45487,-0.79901 -0.14976,-0.31638 -0.77213,-1.94934 -1.38303,-3.6288 -0.6109,-1.67945 -1.52036,-4.16275 -2.02104,-5.51844 -1.14709,-3.10604 -1.18992,-3.54589 -0.3912,-4.01771 0.2117,-0.12505 1.58874,-0.66539 3.06009,-1.20075 1.47136,-0.53536 2.87533,-1.08982 3.11993,-1.23213 0.56422,-0.32826 0.64913,-0.83523 0.20815,-1.24273 -0.17523,-0.16193 -3.00434,-1.77571 -6.28691,-3.58618 -9.174928,-5.06035 -8.665588,-4.83136 -9.277618,-4.17097 -0.29987,0.32356 -5.78141,14.266 -6.09596,15.50521 -0.1344,0.5295 -0.11969,0.60308 0.16695,0.83519 0.39165,0.31714 0.335,0.33071 3.93797,-0.9431 3.56937,-1.26192 3.90926,-1.28864 4.38744,-0.34488 0.25108,0.49556 4.095788,11.05481 4.334448,11.90432 0.15438,0.5495 -0.0344,1.0717 -0.49701,1.37482 -0.19228,0.12598 -2.990108,1.19935 -6.217398,2.38526 -4.78924,1.75986 -6.0081,2.15842 -6.63117,2.16837 -0.8037,0.0128 -0.90917,-0.0424 -15.64514,-8.19599 -1.02104,-0.56495 -1.56579,-1.15961 -1.56579,-1.70925 0,-0.21814 3.6538,-9.91011 8.11957,-21.53771 6.2982,-16.39877 8.19916,-21.211133 8.4744,-21.453373 0.46789,-0.41179 0.8512,-0.39392 1.74794,0.0815 z"
       id="path239"
       inkscape:export-filename="path239.png"
       inkscape:export-xdpi="34.292824"
       inkscape:export-ydpi="34.292824"
       inkscape:label="Logo" /><ellipse
       style="display:none;fill:none;stroke:url(#linearGradient2);stroke-width:0.319173"
       id="path1"
       cx="98.127708"
       cy="122.41376"
       rx="67.573753"
       ry="67.573746"
       inkscape:label="Circle" /></g></svg>
